<svg xmlns="http://www.w3.org/2000/svg" version="1.1" xmlns:xlink="http://www.w3.org/1999/xlink" xmlns:svgjs="http://svgjs.dev/svgjs" viewBox="0 0 800 800" opacity="0.23" width="800" height="800"><g stroke-width="0.5" stroke="hsla(261, 40%, 38%, 1.00)" fill="none"><rect width="53.333333333333336" height="50" x="0" y="0"></rect><rect width="53.333333333333336" height="50" x="53.333333333333336" y="0"></rect><rect width="53.333333333333336" height="50" x="106.66666666666667" y="0"></rect><rect width="53.333333333333336" height="50" x="160" y="0"></rect><rect width="53.333333333333336" height="50" x="213.33333333333334" y="0"></rect><rect width="53.333333333333336" height="50" x="266.6666666666667" y="0"></rect><rect width="53.333333333333336" height="50" x="320" y="0"></rect><rect width="53.333333333333336" height="50" x="373.3333333333333" y="0"></rect><rect width="53.333333333333336" height="50" x="426.66666666666663" y="0"></rect><rect width="53.333333333333336" height="50" x="479.99999999999994" y="0"></rect><rect width="53.333333333333336" height="50" x="533.3333333333333" y="0"></rect><rect width="53.333333333333336" height="50" x="586.6666666666666" y="0"></rect><rect width="53.333333333333336" height="50" x="640" y="0"></rect><rect width="53.333333333333336" height="50" x="693.3333333333334" y="0"></rect><rect width="53.333333333333336" height="50" x="746.6666666666667" y="0"></rect><rect width="53.333333333333336" height="50" x="800.0000000000001" y="0"></rect><rect width="53.333333333333336" height="50" x="0" y="50"></rect><rect width="53.333333333333336" height="50" x="53.333333333333336" y="50"></rect><rect width="53.333333333333336" height="50" x="106.66666666666667" y="50"></rect><rect width="53.333333333333336" height="50" x="160" y="50"></rect><rect width="53.333333333333336" height="50" x="213.33333333333334" y="50"></rect><rect width="53.333333333333336" height="50" x="266.6666666666667" y="50"></rect><rect width="53.333333333333336" height="50" x="320" y="50"></rect><rect width="53.333333333333336" height="50" x="373.3333333333333" y="50"></rect><rect width="53.333333333333336" height="50" x="426.66666666666663" y="50"></rect><rect width="53.333333333333336" height="50" x="479.99999999999994" y="50"></rect><rect width="53.333333333333336" height="50" x="533.3333333333333" y="50"></rect><rect width="53.333333333333336" height="50" x="586.6666666666666" y="50"></rect><rect width="53.333333333333336" height="50" x="640" y="50"></rect><rect width="53.333333333333336" height="50" x="693.3333333333334" y="50"></rect><rect width="53.333333333333336" height="50" x="746.6666666666667" y="50"></rect><rect width="53.333333333333336" height="50" x="800.0000000000001" y="50"></rect><rect width="53.333333333333336" height="50" x="0" y="100"></rect><rect width="53.333333333333336" height="50" x="53.333333333333336" y="100"></rect><rect width="53.333333333333336" height="50" x="106.66666666666667" y="100"></rect><rect width="53.333333333333336" height="50" x="160" y="100"></rect><rect width="53.333333333333336" height="50" x="213.33333333333334" y="100"></rect><rect width="53.333333333333336" height="50" x="266.6666666666667" y="100"></rect><rect width="53.333333333333336" height="50" x="320" y="100"></rect><rect width="53.333333333333336" height="50" x="373.3333333333333" y="100"></rect><rect width="53.333333333333336" height="50" x="426.66666666666663" y="100"></rect><rect width="53.333333333333336" height="50" x="479.99999999999994" y="100"></rect><rect width="53.333333333333336" height="50" x="533.3333333333333" y="100"></rect><rect width="53.333333333333336" height="50" x="586.6666666666666" y="100"></rect><rect width="53.333333333333336" height="50" x="640" y="100"></rect><rect width="53.333333333333336" height="50" x="693.3333333333334" y="100"></rect><rect width="53.333333333333336" height="50" x="746.6666666666667" y="100"></rect><rect width="53.333333333333336" height="50" x="800.0000000000001" y="100"></rect><rect width="53.333333333333336" height="50" x="0" y="150"></rect><rect width="53.333333333333336" height="50" x="53.333333333333336" y="150"></rect><rect width="53.333333333333336" height="50" x="106.66666666666667" y="150"></rect><rect width="53.333333333333336" height="50" x="160" y="150"></rect><rect width="53.333333333333336" height="50" x="213.33333333333334" y="150"></rect><rect width="53.333333333333336" height="50" x="266.6666666666667" y="150"></rect><rect width="53.333333333333336" height="50" x="320" y="150"></rect><rect width="53.333333333333336" height="50" x="373.3333333333333" y="150"></rect><rect width="53.333333333333336" height="50" x="426.66666666666663" y="150"></rect><rect width="53.333333333333336" height="50" x="479.99999999999994" y="150"></rect><rect width="53.333333333333336" height="50" x="533.3333333333333" y="150"></rect><rect width="53.333333333333336" height="50" x="586.6666666666666" y="150"></rect><rect width="53.333333333333336" height="50" x="640" y="150"></rect><rect width="53.333333333333336" height="50" x="693.3333333333334" y="150"></rect><rect width="53.333333333333336" height="50" x="746.6666666666667" y="150"></rect><rect width="53.333333333333336" height="50" x="800.0000000000001" y="150"></rect><rect width="53.333333333333336" height="50" x="0" y="200"></rect><rect width="53.333333333333336" height="50" x="53.333333333333336" y="200"></rect><rect width="53.333333333333336" height="50" x="106.66666666666667" y="200"></rect><rect width="53.333333333333336" height="50" x="160" y="200"></rect><rect width="53.333333333333336" height="50" x="213.33333333333334" y="200"></rect><rect width="53.333333333333336" height="50" x="266.6666666666667" y="200"></rect><rect width="53.333333333333336" height="50" x="320" y="200"></rect><rect width="53.333333333333336" height="50" x="373.3333333333333" y="200"></rect><rect width="53.333333333333336" height="50" x="426.66666666666663" y="200"></rect><rect width="53.333333333333336" height="50" x="479.99999999999994" y="200"></rect><rect width="53.333333333333336" height="50" x="533.3333333333333" y="200"></rect><rect width="53.333333333333336" height="50" x="586.6666666666666" y="200"></rect><rect width="53.333333333333336" height="50" x="640" y="200"></rect><rect width="53.333333333333336" height="50" x="693.3333333333334" y="200"></rect><rect width="53.333333333333336" height="50" x="746.6666666666667" y="200"></rect><rect width="53.333333333333336" height="50" x="800.0000000000001" y="200"></rect><rect width="53.333333333333336" height="50" x="0" y="250"></rect><rect width="53.333333333333336" height="50" x="53.333333333333336" y="250"></rect><rect width="53.333333333333336" height="50" x="106.66666666666667" y="250"></rect><rect width="53.333333333333336" height="50" x="160" y="250"></rect><rect width="53.333333333333336" height="50" x="213.33333333333334" y="250"></rect><rect width="53.333333333333336" height="50" x="266.6666666666667" y="250"></rect><rect width="53.333333333333336" height="50" x="320" y="250"></rect><rect width="53.333333333333336" height="50" x="373.3333333333333" y="250"></rect><rect width="53.333333333333336" height="50" x="426.66666666666663" y="250"></rect><rect width="53.333333333333336" height="50" x="479.99999999999994" y="250"></rect><rect width="53.333333333333336" height="50" x="533.3333333333333" y="250"></rect><rect width="53.333333333333336" height="50" x="586.6666666666666" y="250"></rect><rect width="53.333333333333336" height="50" x="640" y="250"></rect><rect width="53.333333333333336" height="50" x="693.3333333333334" y="250"></rect><rect width="53.333333333333336" height="50" x="746.6666666666667" y="250"></rect><rect width="53.333333333333336" height="50" x="800.0000000000001" y="250"></rect><rect width="53.333333333333336" height="50" x="0" y="300"></rect><rect width="53.333333333333336" height="50" x="53.333333333333336" y="300"></rect><rect width="53.333333333333336" height="50" x="106.66666666666667" y="300"></rect><rect width="53.333333333333336" height="50" x="160" y="300"></rect><rect width="53.333333333333336" height="50" x="213.33333333333334" y="300"></rect><rect width="53.333333333333336" height="50" x="266.6666666666667" y="300"></rect><rect width="53.333333333333336" height="50" x="320" y="300"></rect><rect width="53.333333333333336" height="50" x="373.3333333333333" y="300"></rect><rect width="53.333333333333336" height="50" x="426.66666666666663" y="300"></rect><rect width="53.333333333333336" height="50" x="479.99999999999994" y="300"></rect><rect width="53.333333333333336" height="50" x="533.3333333333333" y="300"></rect><rect width="53.333333333333336" height="50" x="586.6666666666666" y="300"></rect><rect width="53.333333333333336" height="50" x="640" y="300"></rect><rect width="53.333333333333336" height="50" x="693.3333333333334" y="300"></rect><rect width="53.333333333333336" height="50" x="746.6666666666667" y="300"></rect><rect width="53.333333333333336" height="50" x="800.0000000000001" y="300"></rect><rect width="53.333333333333336" height="50" x="0" y="350"></rect><rect width="53.333333333333336" height="50" x="53.333333333333336" y="350"></rect><rect width="53.333333333333336" height="50" x="106.66666666666667" y="350"></rect><rect width="53.333333333333336" height="50" x="160" y="350"></rect><rect width="53.333333333333336" height="50" x="213.33333333333334" y="350"></rect><rect width="53.333333333333336" height="50" x="266.6666666666667" y="350"></rect><rect width="53.333333333333336" height="50" x="320" y="350"></rect><rect width="53.333333333333336" height="50" x="373.3333333333333" y="350"></rect><rect width="53.333333333333336" height="50" x="426.66666666666663" y="350"></rect><rect width="53.333333333333336" height="50" x="479.99999999999994" y="350"></rect><rect width="53.333333333333336" height="50" x="533.3333333333333" y="350"></rect><rect width="53.333333333333336" height="50" x="586.6666666666666" y="350"></rect><rect width="53.333333333333336" height="50" x="640" y="350"></rect><rect width="53.333333333333336" height="50" x="693.3333333333334" y="350"></rect><rect width="53.333333333333336" height="50" x="746.6666666666667" y="350"></rect><rect width="53.333333333333336" height="50" x="800.0000000000001" y="350"></rect><rect width="53.333333333333336" height="50" x="0" y="400"></rect><rect width="53.333333333333336" height="50" x="53.333333333333336" y="400"></rect><rect width="53.333333333333336" height="50" x="106.66666666666667" y="400"></rect><rect width="53.333333333333336" height="50" x="160" y="400"></rect><rect width="53.333333333333336" height="50" x="213.33333333333334" y="400"></rect><rect width="53.333333333333336" height="50" x="266.6666666666667" y="400"></rect><rect width="53.333333333333336" height="50" x="320" y="400"></rect><rect width="53.333333333333336" height="50" x="373.3333333333333" y="400"></rect><rect width="53.333333333333336" height="50" x="426.66666666666663" y="400"></rect><rect width="53.333333333333336" height="50" x="479.99999999999994" y="400"></rect><rect width="53.333333333333336" height="50" x="533.3333333333333" y="400"></rect><rect width="53.333333333333336" height="50" x="586.6666666666666" y="400"></rect><rect width="53.333333333333336" height="50" x="640" y="400"></rect><rect width="53.333333333333336" height="50" x="693.3333333333334" y="400"></rect><rect width="53.333333333333336" height="50" x="746.6666666666667" y="400"></rect><rect width="53.333333333333336" height="50" x="800.0000000000001" y="400"></rect><rect width="53.333333333333336" height="50" x="0" y="450"></rect><rect width="53.333333333333336" height="50" x="53.333333333333336" y="450"></rect><rect width="53.333333333333336" height="50" x="106.66666666666667" y="450"></rect><rect width="53.333333333333336" height="50" x="160" y="450"></rect><rect width="53.333333333333336" height="50" x="213.33333333333334" y="450"></rect><rect width="53.333333333333336" height="50" x="266.6666666666667" y="450"></rect><rect width="53.333333333333336" height="50" x="320" y="450"></rect><rect width="53.333333333333336" height="50" x="373.3333333333333" y="450"></rect><rect width="53.333333333333336" height="50" x="426.66666666666663" y="450"></rect><rect width="53.333333333333336" height="50" x="479.99999999999994" y="450"></rect><rect width="53.333333333333336" height="50" x="533.3333333333333" y="450"></rect><rect width="53.333333333333336" height="50" x="586.6666666666666" y="450"></rect><rect width="53.333333333333336" height="50" x="640" y="450"></rect><rect width="53.333333333333336" height="50" x="693.3333333333334" y="450"></rect><rect width="53.333333333333336" height="50" x="746.6666666666667" y="450"></rect><rect width="53.333333333333336" height="50" x="800.0000000000001" y="450"></rect><rect width="53.333333333333336" height="50" x="0" y="500"></rect><rect width="53.333333333333336" height="50" x="53.333333333333336" y="500"></rect><rect width="53.333333333333336" height="50" x="106.66666666666667" y="500"></rect><rect width="53.333333333333336" height="50" x="160" y="500"></rect><rect width="53.333333333333336" height="50" x="213.33333333333334" y="500"></rect><rect width="53.333333333333336" height="50" x="266.6666666666667" y="500"></rect><rect width="53.333333333333336" height="50" x="320" y="500"></rect><rect width="53.333333333333336" height="50" x="373.3333333333333" y="500"></rect><rect width="53.333333333333336" height="50" x="426.66666666666663" y="500"></rect><rect width="53.333333333333336" height="50" x="479.99999999999994" y="500"></rect><rect width="53.333333333333336" height="50" x="533.3333333333333" y="500"></rect><rect width="53.333333333333336" height="50" x="586.6666666666666" y="500"></rect><rect width="53.333333333333336" height="50" x="640" y="500"></rect><rect width="53.333333333333336" height="50" x="693.3333333333334" y="500"></rect><rect width="53.333333333333336" height="50" x="746.6666666666667" y="500"></rect><rect width="53.333333333333336" height="50" x="800.0000000000001" y="500"></rect><rect width="53.333333333333336" height="50" x="0" y="550"></rect><rect width="53.333333333333336" height="50" x="53.333333333333336" y="550"></rect><rect width="53.333333333333336" height="50" x="106.66666666666667" y="550"></rect><rect width="53.333333333333336" height="50" x="160" y="550"></rect><rect width="53.333333333333336" height="50" x="213.33333333333334" y="550"></rect><rect width="53.333333333333336" height="50" x="266.6666666666667" y="550"></rect><rect width="53.333333333333336" height="50" x="320" y="550"></rect><rect width="53.333333333333336" height="50" x="373.3333333333333" y="550"></rect><rect width="53.333333333333336" height="50" x="426.66666666666663" y="550"></rect><rect width="53.333333333333336" height="50" x="479.99999999999994" y="550"></rect><rect width="53.333333333333336" height="50" x="533.3333333333333" y="550"></rect><rect width="53.333333333333336" height="50" x="586.6666666666666" y="550"></rect><rect width="53.333333333333336" height="50" x="640" y="550"></rect><rect width="53.333333333333336" height="50" x="693.3333333333334" y="550"></rect><rect width="53.333333333333336" height="50" x="746.6666666666667" y="550"></rect><rect width="53.333333333333336" height="50" x="800.0000000000001" y="550"></rect><rect width="53.333333333333336" height="50" x="0" y="600"></rect><rect width="53.333333333333336" height="50" x="53.333333333333336" y="600"></rect><rect width="53.333333333333336" height="50" x="106.66666666666667" y="600"></rect><rect width="53.333333333333336" height="50" x="160" y="600"></rect><rect width="53.333333333333336" height="50" x="213.33333333333334" y="600"></rect><rect width="53.333333333333336" height="50" x="266.6666666666667" y="600"></rect><rect width="53.333333333333336" height="50" x="320" y="600"></rect><rect width="53.333333333333336" height="50" x="373.3333333333333" y="600"></rect><rect width="53.333333333333336" height="50" x="426.66666666666663" y="600"></rect><rect width="53.333333333333336" height="50" x="479.99999999999994" y="600"></rect><rect width="53.333333333333336" height="50" x="533.3333333333333" y="600"></rect><rect width="53.333333333333336" height="50" x="586.6666666666666" y="600"></rect><rect width="53.333333333333336" height="50" x="640" y="600"></rect><rect width="53.333333333333336" height="50" x="693.3333333333334" y="600"></rect><rect width="53.333333333333336" height="50" x="746.6666666666667" y="600"></rect><rect width="53.333333333333336" height="50" x="800.0000000000001" y="600"></rect><rect width="53.333333333333336" height="50" x="0" y="650"></rect><rect width="53.333333333333336" height="50" x="53.333333333333336" y="650"></rect><rect width="53.333333333333336" height="50" x="106.66666666666667" y="650"></rect><rect width="53.333333333333336" height="50" x="160" y="650"></rect><rect width="53.333333333333336" height="50" x="213.33333333333334" y="650"></rect><rect width="53.333333333333336" height="50" x="266.6666666666667" y="650"></rect><rect width="53.333333333333336" height="50" x="320" y="650"></rect><rect width="53.333333333333336" height="50" x="373.3333333333333" y="650"></rect><rect width="53.333333333333336" height="50" x="426.66666666666663" y="650"></rect><rect width="53.333333333333336" height="50" x="479.99999999999994" y="650"></rect><rect width="53.333333333333336" height="50" x="533.3333333333333" y="650"></rect><rect width="53.333333333333336" height="50" x="586.6666666666666" y="650"></rect><rect width="53.333333333333336" height="50" x="640" y="650"></rect><rect width="53.333333333333336" height="50" x="693.3333333333334" y="650"></rect><rect width="53.333333333333336" height="50" x="746.6666666666667" y="650"></rect><rect width="53.333333333333336" height="50" x="800.0000000000001" y="650"></rect><rect width="53.333333333333336" height="50" x="0" y="700"></rect><rect width="53.333333333333336" height="50" x="53.333333333333336" y="700"></rect><rect width="53.333333333333336" height="50" x="106.66666666666667" y="700"></rect><rect width="53.333333333333336" height="50" x="160" y="700"></rect><rect width="53.333333333333336" height="50" x="213.33333333333334" y="700"></rect><rect width="53.333333333333336" height="50" x="266.6666666666667" y="700"></rect><rect width="53.333333333333336" height="50" x="320" y="700"></rect><rect width="53.333333333333336" height="50" x="373.3333333333333" y="700"></rect><rect width="53.333333333333336" height="50" x="426.66666666666663" y="700"></rect><rect width="53.333333333333336" height="50" x="479.99999999999994" y="700"></rect><rect width="53.333333333333336" height="50" x="533.3333333333333" y="700"></rect><rect width="53.333333333333336" height="50" x="586.6666666666666" y="700"></rect><rect width="53.333333333333336" height="50" x="640" y="700"></rect><rect width="53.333333333333336" height="50" x="693.3333333333334" y="700"></rect><rect width="53.333333333333336" height="50" x="746.6666666666667" y="700"></rect><rect width="53.333333333333336" height="50" x="800.0000000000001" y="700"></rect><rect width="53.333333333333336" height="50" x="0" y="750"></rect><rect width="53.333333333333336" height="50" x="53.333333333333336" y="750"></rect><rect width="53.333333333333336" height="50" x="106.66666666666667" y="750"></rect><rect width="53.333333333333336" height="50" x="160" y="750"></rect><rect width="53.333333333333336" height="50" x="213.33333333333334" y="750"></rect><rect width="53.333333333333336" height="50" x="266.6666666666667" y="750"></rect><rect width="53.333333333333336" height="50" x="320" y="750"></rect><rect width="53.333333333333336" height="50" x="373.3333333333333" y="750"></rect><rect width="53.333333333333336" height="50" x="426.66666666666663" y="750"></rect><rect width="53.333333333333336" height="50" x="479.99999999999994" y="750"></rect><rect width="53.333333333333336" height="50" x="533.3333333333333" y="750"></rect><rect width="53.333333333333336" height="50" x="586.6666666666666" y="750"></rect><rect width="53.333333333333336" height="50" x="640" y="750"></rect><rect width="53.333333333333336" height="50" x="693.3333333333334" y="750"></rect><rect width="53.333333333333336" height="50" x="746.6666666666667" y="750"></rect><rect width="53.333333333333336" height="50" x="800.0000000000001" y="750"></rect><rect width="53.333333333333336" height="50" x="0" y="800"></rect><rect width="53.333333333333336" height="50" x="53.333333333333336" y="800"></rect><rect width="53.333333333333336" height="50" x="106.66666666666667" y="800"></rect><rect width="53.333333333333336" height="50" x="160" y="800"></rect><rect width="53.333333333333336" height="50" x="213.33333333333334" y="800"></rect><rect width="53.333333333333336" height="50" x="266.6666666666667" y="800"></rect><rect width="53.333333333333336" height="50" x="320" y="800"></rect><rect width="53.333333333333336" height="50" x="373.3333333333333" y="800"></rect><rect width="53.333333333333336" height="50" x="426.66666666666663" y="800"></rect><rect width="53.333333333333336" height="50" x="479.99999999999994" y="800"></rect><rect width="53.333333333333336" height="50" x="533.3333333333333" y="800"></rect><rect width="53.333333333333336" height="50" x="586.6666666666666" y="800"></rect><rect width="53.333333333333336" height="50" x="640" y="800"></rect><rect width="53.333333333333336" height="50" x="693.3333333333334" y="800"></rect><rect width="53.333333333333336" height="50" x="746.6666666666667" y="800"></rect><rect width="53.333333333333336" height="50" x="800.0000000000001" y="800"></rect></g></svg>